<svg id="visual" viewBox="0 0 960 540" width="960" height="540" xmlns="http://www.w3.org/2000/svg" xmlns:xlink="http://www.w3.org/1999/xlink" version="1.1"><path d="M0 39L14.5 48C29 57 58 75 87.2 83C116.3 91 145.7 89 174.8 94.3C204 99.7 233 112.3 262 106.2C291 100 320 75 349 67.8C378 60.7 407 71.3 436.2 71.3C465.3 71.3 494.7 60.7 523.8 51.7C553 42.7 582 35.3 611 36.2C640 37 669 46 698 55C727 64 756 73 785.2 73C814.3 73 843.7 64 872.8 55.8C902 47.7 931 40.3 945.5 36.7L960 33L960 0L945.5 0C931 0 902 0 872.8 0C843.7 0 814.3 0 785.2 0C756 0 727 0 698 0C669 0 640 0 611 0C582 0 553 0 523.8 0C494.7 0 465.3 0 436.2 0C407 0 378 0 349 0C320 0 291 0 262 0C233 0 204 0 174.8 0C145.7 0 116.3 0 87.2 0C58 0 29 0 14.5 0L0 0Z" fill="#1c3b6a"></path><path d="M0 66L14.5 73.2C29 80.3 58 94.7 87.2 101.8C116.3 109 145.7 109 174.8 114.3C204 119.7 233 130.3 262 123.2C291 116 320 91 349 86.5C378 82 407 98 436.2 97C465.3 96 494.7 78 523.8 67.3C553 56.7 582 53.3 611 57.8C640 62.3 669 74.7 698 81.8C727 89 756 91 785.2 90.2C814.3 89.3 843.7 85.7 872.8 80.2C902 74.7 931 67.3 945.5 63.7L960 60L960 31L945.5 34.7C931 38.3 902 45.7 872.8 53.8C843.7 62 814.3 71 785.2 71C756 71 727 62 698 53C669 44 640 35 611 34.2C582 33.3 553 40.7 523.8 49.7C494.7 58.7 465.3 69.3 436.2 69.3C407 69.3 378 58.7 349 65.8C320 73 291 98 262 104.2C233 110.3 204 97.7 174.8 92.3C145.7 87 116.3 89 87.2 81C58 73 29 55 14.5 46L0 37Z" fill="#192f57"></path><path d="M0 104L14.5 113.8C29 123.7 58 143.3 87.2 146.8C116.3 150.3 145.7 137.7 174.8 136.8C204 136 233 147 262 145.2C291 143.3 320 128.7 349 129.5C378 130.3 407 146.7 436.2 140.5C465.3 134.3 494.7 105.7 523.8 95.8C553 86 582 95 611 104C640 113 669 122 698 125.5C727 129 756 127 785.2 126C814.3 125 843.7 125 872.8 118.7C902 112.3 931 99.7 945.5 93.3L960 87L960 58L945.5 61.7C931 65.3 902 72.7 872.8 78.2C843.7 83.7 814.3 87.3 785.2 88.2C756 89 727 87 698 79.8C669 72.7 640 60.3 611 55.8C582 51.3 553 54.7 523.8 65.3C494.7 76 465.3 94 436.2 95C407 96 378 80 349 84.5C320 89 291 114 262 121.2C233 128.3 204 117.7 174.8 112.3C145.7 107 116.3 107 87.2 99.8C58 92.7 29 78.3 14.5 71.2L0 64Z" fill="#142445"></path><path d="M0 136L14.5 147.7C29 159.3 58 182.7 87.2 190.8C116.3 199 145.7 192 174.8 189.3C204 186.7 233 188.3 262 182C291 175.7 320 161.3 349 164C378 166.7 407 186.3 436.2 181.8C465.3 177.3 494.7 148.7 523.8 139.7C553 130.7 582 141.3 611 150.3C640 159.3 669 166.7 698 172.2C727 177.7 756 181.3 785.2 176.8C814.3 172.3 843.7 159.7 872.8 152.3C902 145 931 143 945.5 142L960 141L960 85L945.5 91.3C931 97.7 902 110.3 872.8 116.7C843.7 123 814.3 123 785.2 124C756 125 727 127 698 123.5C669 120 640 111 611 102C582 93 553 84 523.8 93.8C494.7 103.7 465.3 132.3 436.2 138.5C407 144.7 378 128.3 349 127.5C320 126.7 291 141.3 262 143.2C233 145 204 134 174.8 134.8C145.7 135.7 116.3 148.3 87.2 144.8C58 141.3 29 121.7 14.5 111.8L0 102Z" fill="#0f1935"></path><path d="M0 212L14.5 235.3C29 258.7 58 305.3 87.2 317C116.3 328.7 145.7 305.3 174.8 293.7C204 282 233 282 262 285.5C291 289 320 296 349 305.8C378 315.7 407 328.3 436.2 320.3C465.3 312.3 494.7 283.7 523.8 273.8C553 264 582 273 611 284.7C640 296.3 669 310.7 698 311.5C727 312.3 756 299.7 785.2 279C814.3 258.3 843.7 229.7 872.8 224.3C902 219 931 237 945.5 246L960 255L960 139L945.5 140C931 141 902 143 872.8 150.3C843.7 157.7 814.3 170.3 785.2 174.8C756 179.3 727 175.7 698 170.2C669 164.7 640 157.3 611 148.3C582 139.3 553 128.7 523.8 137.7C494.7 146.7 465.3 175.3 436.2 179.8C407 184.3 378 164.7 349 162C320 159.3 291 173.7 262 180C233 186.3 204 184.7 174.8 187.3C145.7 190 116.3 197 87.2 188.8C58 180.7 29 157.3 14.5 145.7L0 134Z" fill="#090d25"></path><path d="M0 233L14.5 256.5C29 280 58 327 87.2 342.3C116.3 357.7 145.7 341.3 174.8 328.7C204 316 233 307 262 309.7C291 312.3 320 326.7 349 337.5C378 348.3 407 355.7 436.2 349.3C465.3 343 494.7 323 523.8 313C553 303 582 303 611 312C640 321 669 339 698 341.8C727 344.7 756 332.3 785.2 311.7C814.3 291 843.7 262 872.8 256.5C902 251 931 269 945.5 278L960 287L960 253L945.5 244C931 235 902 217 872.8 222.3C843.7 227.7 814.3 256.3 785.2 277C756 297.7 727 310.3 698 309.5C669 308.7 640 294.3 611 282.7C582 271 553 262 523.8 271.8C494.7 281.7 465.3 310.3 436.2 318.3C407 326.3 378 313.7 349 303.8C320 294 291 287 262 283.5C233 280 204 280 174.8 291.7C145.7 303.3 116.3 326.7 87.2 315C58 303.3 29 256.7 14.5 233.3L0 210Z" fill="#05051f"></path><path d="M0 249L14.5 274.3C29 299.7 58 350.3 87.2 366.7C116.3 383 145.7 365 174.8 350.5C204 336 233 325 262 327.7C291 330.3 320 346.7 349 359.3C378 372 407 381 436.2 375.5C465.3 370 494.7 350 523.8 340C553 330 582 330 611 337.3C640 344.7 669 359.3 698 363.8C727 368.3 756 362.7 785.2 344.7C814.3 326.7 843.7 296.3 872.8 286.5C902 276.7 931 287.3 945.5 292.7L960 298L960 285L945.5 276C931 267 902 249 872.8 254.5C843.7 260 814.3 289 785.2 309.7C756 330.3 727 342.7 698 339.8C669 337 640 319 611 310C582 301 553 301 523.8 311C494.7 321 465.3 341 436.2 347.3C407 353.7 378 346.3 349 335.5C320 324.7 291 310.3 262 307.7C233 305 204 314 174.8 326.7C145.7 339.3 116.3 355.7 87.2 340.3C58 325 29 278 14.5 254.5L0 231Z" fill="#05051f"></path><path d="M0 260L14.5 285.2C29 310.3 58 360.7 87.2 378.7C116.3 396.7 145.7 382.3 174.8 370.7C204 359 233 350 262 352.7C291 355.3 320 369.7 349 381.3C378 393 407 402 436.2 396.7C465.3 391.3 494.7 371.7 523.8 361C553 350.3 582 348.7 611 355.8C640 363 669 379 698 384.3C727 389.7 756 384.3 785.2 365.5C814.3 346.7 843.7 314.3 872.8 303.5C902 292.7 931 303.3 945.5 308.7L960 314L960 296L945.5 290.7C931 285.3 902 274.7 872.8 284.5C843.7 294.3 814.3 324.7 785.2 342.7C756 360.7 727 366.3 698 361.8C669 357.3 640 342.7 611 335.3C582 328 553 328 523.8 338C494.7 348 465.3 368 436.2 373.5C407 379 378 370 349 357.3C320 344.7 291 328.3 262 325.7C233 323 204 334 174.8 348.5C145.7 363 116.3 381 87.2 364.7C58 348.3 29 297.7 14.5 272.3L0 247Z" fill="#090d25"></path><path d="M0 298L14.5 321.3C29 344.7 58 391.3 87.2 407.5C116.3 423.7 145.7 409.3 174.8 398.7C204 388 233 381 262 382C291 383 320 392 349 401.8C378 411.7 407 422.3 436.2 416C465.3 409.7 494.7 386.3 523.8 376.5C553 366.7 582 370.3 611 380.2C640 390 669 406 698 408.7C727 411.3 756 400.7 785.2 382.7C814.3 364.7 843.7 339.3 872.8 332.2C902 325 931 336 945.5 341.5L960 347L960 312L945.5 306.7C931 301.3 902 290.7 872.8 301.5C843.7 312.3 814.3 344.7 785.2 363.5C756 382.3 727 387.7 698 382.3C669 377 640 361 611 353.8C582 346.7 553 348.3 523.8 359C494.7 369.7 465.3 389.3 436.2 394.7C407 400 378 391 349 379.3C320 367.7 291 353.3 262 350.7C233 348 204 357 174.8 368.7C145.7 380.3 116.3 394.7 87.2 376.7C58 358.7 29 308.3 14.5 283.2L0 258Z" fill="#0f1935"></path><path d="M0 449L14.5 456.2C29 463.3 58 477.7 87.2 484C116.3 490.3 145.7 488.7 174.8 490.5C204 492.3 233 497.7 262 493.2C291 488.7 320 474.3 349 469.8C378 465.3 407 470.7 436.2 476C465.3 481.3 494.7 486.7 523.8 482.2C553 477.7 582 463.3 611 459.8C640 456.3 669 463.7 698 470.8C727 478 756 485 785.2 482.3C814.3 479.7 843.7 467.3 872.8 462.8C902 458.3 931 461.7 945.5 463.3L960 465L960 345L945.5 339.5C931 334 902 323 872.8 330.2C843.7 337.3 814.3 362.7 785.2 380.7C756 398.7 727 409.3 698 406.7C669 404 640 388 611 378.2C582 368.3 553 364.7 523.8 374.5C494.7 384.3 465.3 407.7 436.2 414C407 420.3 378 409.7 349 399.8C320 390 291 381 262 380C233 379 204 386 174.8 396.7C145.7 407.3 116.3 421.7 87.2 405.5C58 389.3 29 342.7 14.5 319.3L0 296Z" fill="#142445"></path><path d="M0 525L14.5 523.2C29 521.3 58 517.7 87.2 516.7C116.3 515.7 145.7 517.3 174.8 520C204 522.7 233 526.3 262 527.3C291 528.3 320 526.7 349 524C378 521.3 407 517.7 436.2 517.7C465.3 517.7 494.7 521.3 523.8 521.3C553 521.3 582 517.7 611 515.8C640 514 669 514 698 514.8C727 515.7 756 517.3 785.2 518.2C814.3 519 843.7 519 872.8 518.2C902 517.3 931 515.7 945.5 514.8L960 514L960 463L945.5 461.3C931 459.7 902 456.3 872.8 460.8C843.7 465.3 814.3 477.7 785.2 480.3C756 483 727 476 698 468.8C669 461.7 640 454.3 611 457.8C582 461.3 553 475.7 523.8 480.2C494.7 484.7 465.3 479.3 436.2 474C407 468.7 378 463.3 349 467.8C320 472.3 291 486.7 262 491.2C233 495.7 204 490.3 174.8 488.5C145.7 486.7 116.3 488.3 87.2 482C58 475.7 29 461.3 14.5 454.2L0 447Z" fill="#192f57"></path><path d="M0 541L14.5 541C29 541 58 541 87.2 541C116.3 541 145.7 541 174.8 541C204 541 233 541 262 541C291 541 320 541 349 541C378 541 407 541 436.2 541C465.3 541 494.7 541 523.8 541C553 541 582 541 611 541C640 541 669 541 698 541C727 541 756 541 785.2 541C814.3 541 843.7 541 872.8 541C902 541 931 541 945.5 541L960 541L960 512L945.5 512.8C931 513.7 902 515.3 872.8 516.2C843.7 517 814.3 517 785.2 516.2C756 515.3 727 513.7 698 512.8C669 512 640 512 611 513.8C582 515.7 553 519.3 523.8 519.3C494.7 519.3 465.3 515.7 436.2 515.7C407 515.7 378 519.3 349 522C320 524.7 291 526.3 262 525.3C233 524.3 204 520.7 174.8 518C145.7 515.3 116.3 513.7 87.2 514.7C58 515.7 29 519.3 14.5 521.2L0 523Z" fill="#1c3b6a"></path></svg>